<svg xmlns="http://www.w3.org/2000/svg" width="518.428" height="383.403" viewBox="0 0 518.428 383.403">
  <g id="Group_120" data-name="Group 120" transform="translate(-146.539 -290.032)">
    <g id="Group_3" data-name="Group 3" transform="translate(166 230)">
      <g id="Group_2" data-name="Group 2">
        <path id="Path_35" data-name="Path 35" d="M240,128A112,112,0,1,0,352,240,112,112,0,0,0,240,128Zm83.248,64.392A95.015,95.015,0,0,1,335.592,232H295.808a213.912,213.912,0,0,0-3.92-34.752C303.088,196.024,313.648,194.392,323.248,192.392Zm-10.032-14.336c-7.888,1.424-16.352,2.616-25.264,3.544a117.342,117.342,0,0,0-14.16-31.344A96.24,96.24,0,0,1,313.216,178.056ZM200.184,232a196.661,196.661,0,0,1,3.936-33.272C215.7,199.568,227.752,200,240,200s24.3-.432,35.88-1.272A196.661,196.661,0,0,1,279.816,232Zm79.632,16a196.764,196.764,0,0,1-3.936,33.272C264.3,280.432,252.248,280,240,280s-24.3.432-35.88,1.272A196.662,196.662,0,0,1,200.184,248ZM240,144c11.536,0,23.84,14.7,31.72,38.96-10.264.664-20.888,1.04-31.72,1.04s-21.456-.376-31.72-1.04C216.16,158.7,228.464,144,240,144Zm-33.792,6.256a117.343,117.343,0,0,0-14.16,31.344c-8.912-.928-17.376-2.12-25.264-3.544A96.24,96.24,0,0,1,206.208,150.256Zm-49.456,42.136c9.6,2,20.144,3.632,31.36,4.856A213.916,213.916,0,0,0,184.192,232H144.408A95.029,95.029,0,0,1,156.752,192.392Zm0,95.216A95.015,95.015,0,0,1,144.408,248h39.784a213.918,213.918,0,0,0,3.92,34.752C176.912,283.976,166.352,285.608,156.752,287.608Zm10.032,14.336c7.888-1.424,16.352-2.616,25.264-3.544a117.342,117.342,0,0,0,14.16,31.344A96.249,96.249,0,0,1,166.784,301.944ZM240,336c-11.536,0-23.84-14.7-31.72-38.96,10.264-.664,20.888-1.04,31.72-1.04s21.456.376,31.72,1.04C263.84,321.3,251.536,336,240,336Zm33.792-6.256a117.343,117.343,0,0,0,14.16-31.344c8.912.928,17.376,2.12,25.264,3.544A96.249,96.249,0,0,1,273.792,329.744Zm49.456-42.136c-9.6-2-20.144-3.632-31.36-4.856A213.932,213.932,0,0,0,295.808,248h39.784A95.029,95.029,0,0,1,323.248,287.608Z"/>
      </g>
    </g>
    <g id="Group_9" data-name="Group 9" transform="translate(149.039 172)">
      <g id="Group_8" data-name="Group 8" transform="translate(0 368)">
        <path id="Path_38" data-name="Path 38" d="M102.878,461.525a9.353,9.353,0,0,0,9.353-9.353v-74.82A9.353,9.353,0,0,0,102.878,368H9.353A9.353,9.353,0,0,0,0,377.353v74.82a9.353,9.353,0,0,0,9.353,9.353h37.41V480.23H0v18.705H112.23V480.23H65.468V461.525ZM18.705,442.82V386.705h74.82V442.82Z" transform="translate(0 -368)"/>
      </g>
    </g>
    <g id="Group_56" data-name="Group 56" transform="translate(763.492 474.891) rotate(133)">
      <g id="Group_28" data-name="Group 28" transform="translate(232 384)">
        <rect id="Rectangle_9" data-name="Rectangle 9" width="16" height="48.752"/>
      </g>
    </g>
    <g id="Group_57" data-name="Group 57" transform="translate(972.492 670.052) rotate(133)">
      <g id="Group_28-2" data-name="Group 28" transform="translate(232 384)">
        <rect id="Rectangle_9-2" data-name="Rectangle 9" width="16" height="48.752"/>
      </g>
    </g>
    <g id="Group_59" data-name="Group 59" transform="matrix(0.695, 0.719, -0.719, 0.695, 429.927, 110.874)">
      <g id="Group_28-3" data-name="Group 28" transform="translate(232 384)">
        <rect id="Rectangle_9-3" data-name="Rectangle 9" width="16" height="51.134"/>
      </g>
    </g>
    <g id="Group_61" data-name="Group 61" transform="matrix(0.695, 0.719, -0.719, 0.695, 429.927, 110.874)">
      <g id="Group_28-4" data-name="Group 28" transform="translate(232 384)">
        <rect id="Rectangle_9-4" data-name="Rectangle 9" width="16" height="48.598"/>
      </g>
    </g>
    <g id="Group_62" data-name="Group 62" transform="matrix(0.695, 0.719, -0.719, 0.695, 633.885, -85.636)">
      <g id="Group_28-5" data-name="Group 28" transform="translate(232 384)">
        <rect id="Rectangle_9-5" data-name="Rectangle 9" width="16" height="48.598"/>
      </g>
    </g>
    <g id="Group_63" data-name="Group 63" transform="translate(550.237 -75.468)">
      <g id="Group_8-2" data-name="Group 8" transform="translate(0 368)">
        <path id="Path_38-2" data-name="Path 38" d="M102.878,461.525a9.353,9.353,0,0,0,9.353-9.353v-74.82A9.353,9.353,0,0,0,102.878,368H9.353A9.353,9.353,0,0,0,0,377.353v74.82a9.353,9.353,0,0,0,9.353,9.353h37.41V480.23H0v18.705H112.23V480.23H65.468V461.525ZM18.705,442.82V386.705h74.82V442.82Z" transform="translate(0 -368)"/>
      </g>
    </g>
    <path id="Path_52" data-name="Path 52" d="M35.211,9.014H8.339A1.474,1.474,0,0,0,7.014,10.6a1.474,1.474,0,0,0,1.325,1.587H35.211A1.474,1.474,0,0,0,36.537,10.6,1.474,1.474,0,0,0,35.211,9.014Z" transform="translate(156.824 298.024)" stroke="#000" stroke-width="5"/>
    <path id="Path_53" data-name="Path 53" d="M108.713,0H7.248C3.245,0,0,2.882,0,6.437V25.748c0,3.555,3.245,6.437,7.248,6.437H108.713c4,0,7.248-2.882,7.248-6.437V6.437C115.96,2.882,112.716,0,108.713,0Zm3.624,25.748a3.443,3.443,0,0,1-3.624,3.219H7.248a3.443,3.443,0,0,1-3.624-3.219V6.437A3.443,3.443,0,0,1,7.248,3.219H108.713a3.443,3.443,0,0,1,3.624,3.219Z" transform="translate(149.039 292.532)" stroke="#000" stroke-width="5"/>
    <path id="Path_54" data-name="Path 54" d="M35.211,31.014H8.339a1.613,1.613,0,0,0,0,3.175H35.211a1.613,1.613,0,0,0,0-3.175Z" transform="translate(156.824 320.217)" stroke="#000" stroke-width="5"/>
    <ellipse id="Ellipse_7" data-name="Ellipse 7" cx="2.724" cy="3.206" rx="2.724" ry="3.206" transform="translate(246.189 349.612)" stroke="#000" stroke-width="5"/>
    <path id="Path_55" data-name="Path 55" d="M108.713,22H7.248C3.245,22,0,24.882,0,28.437V47.748c0,3.555,3.245,6.437,7.248,6.437H108.713c4,0,7.248-2.882,7.248-6.437V28.437C115.96,24.882,112.716,22,108.713,22Zm3.624,25.748a3.443,3.443,0,0,1-3.624,3.219H7.248a3.443,3.443,0,0,1-3.624-3.219V28.437a3.443,3.443,0,0,1,3.624-3.219H108.713a3.443,3.443,0,0,1,3.624,3.219Z" transform="translate(149.039 314.725)" stroke="#000" stroke-width="5"/>
    <path id="Path_56" data-name="Path 56" d="M35.211,53.014H8.339a1.613,1.613,0,0,0,0,3.175H35.211a1.613,1.613,0,0,0,0-3.175Z" transform="translate(156.824 342.41)" stroke="#000" stroke-width="5"/>
    <path id="Path_57" data-name="Path 57" d="M108.713,44H7.248C3.245,44,0,46.882,0,50.437V69.748c0,3.555,3.245,6.437,7.248,6.437H108.713c4,0,7.248-2.882,7.248-6.437V50.437C115.96,46.882,112.716,44,108.713,44Zm3.624,25.748a3.443,3.443,0,0,1-3.624,3.219H7.248a3.443,3.443,0,0,1-3.624-3.219V50.437a3.443,3.443,0,0,1,3.624-3.219H108.713a3.443,3.443,0,0,1,3.624,3.219Z" transform="translate(149.039 336.918)" stroke="#000" stroke-width="5"/>
    <ellipse id="Ellipse_8" data-name="Ellipse 8" cx="2.724" cy="3.206" rx="2.724" ry="3.206" transform="translate(246.189 349.612)" stroke="#000" stroke-width="5"/>
    <ellipse id="Ellipse_9" data-name="Ellipse 9" cx="2.724" cy="3.206" rx="2.724" ry="3.206" transform="translate(246.189 305.419)" stroke="#000" stroke-width="5"/>
    <ellipse id="Ellipse_10" data-name="Ellipse 10" cx="2.724" cy="3.206" rx="2.724" ry="3.206" transform="translate(246.189 393.805)" stroke="#000" stroke-width="5"/>
    <g id="Group_114" data-name="Group 114" transform="translate(-904.73 123.975)">
      <path id="Path_58" data-name="Path 58" d="M35.211,9.014H8.339A1.474,1.474,0,0,0,7.014,10.6a1.474,1.474,0,0,0,1.325,1.587H35.211A1.474,1.474,0,0,0,36.537,10.6,1.474,1.474,0,0,0,35.211,9.014Z" transform="translate(1459.022 431.881)" stroke="#000" stroke-width="5"/>
      <path id="Path_59" data-name="Path 59" d="M108.713,0H7.248C3.245,0,0,2.882,0,6.437V25.748c0,3.555,3.245,6.437,7.248,6.437H108.713c4,0,7.248-2.882,7.248-6.437V6.437C115.96,2.882,112.716,0,108.713,0Zm3.624,25.748a3.443,3.443,0,0,1-3.624,3.219H7.248a3.443,3.443,0,0,1-3.624-3.219V6.437A3.443,3.443,0,0,1,7.248,3.219H108.713a3.443,3.443,0,0,1,3.624,3.219Z" transform="translate(1451.237 426.389)" stroke="#000" stroke-width="5"/>
      <path id="Path_60" data-name="Path 60" d="M35.211,31.014H8.339a1.613,1.613,0,0,0,0,3.175H35.211a1.613,1.613,0,0,0,0-3.175Z" transform="translate(1459.022 454.074)" stroke="#000" stroke-width="5"/>
      <ellipse id="Ellipse_11" data-name="Ellipse 11" cx="2.724" cy="3.206" rx="2.724" ry="3.206" transform="translate(1548.387 483.469)" stroke="#000" stroke-width="5"/>
      <path id="Path_61" data-name="Path 61" d="M108.713,22H7.248C3.245,22,0,24.882,0,28.437V47.748c0,3.555,3.245,6.437,7.248,6.437H108.713c4,0,7.248-2.882,7.248-6.437V28.437C115.96,24.882,112.716,22,108.713,22Zm3.624,25.748a3.443,3.443,0,0,1-3.624,3.219H7.248a3.443,3.443,0,0,1-3.624-3.219V28.437a3.443,3.443,0,0,1,3.624-3.219H108.713a3.443,3.443,0,0,1,3.624,3.219Z" transform="translate(1451.237 448.582)" stroke="#000" stroke-width="5"/>
      <path id="Path_62" data-name="Path 62" d="M35.211,53.014H8.339a1.613,1.613,0,0,0,0,3.175H35.211a1.613,1.613,0,0,0,0-3.175Z" transform="translate(1459.022 476.267)" stroke="#000" stroke-width="5"/>
      <path id="Path_63" data-name="Path 63" d="M108.713,44H7.248C3.245,44,0,46.882,0,50.437V69.748c0,3.555,3.245,6.437,7.248,6.437H108.713c4,0,7.248-2.882,7.248-6.437V50.437C115.96,46.882,112.716,44,108.713,44Zm3.624,25.748a3.443,3.443,0,0,1-3.624,3.219H7.248a3.443,3.443,0,0,1-3.624-3.219V50.437a3.443,3.443,0,0,1,3.624-3.219H108.713a3.443,3.443,0,0,1,3.624,3.219Z" transform="translate(1451.237 470.775)" stroke="#000" stroke-width="5"/>
      <ellipse id="Ellipse_12" data-name="Ellipse 12" cx="2.724" cy="3.206" rx="2.724" ry="3.206" transform="translate(1548.387 483.469)" stroke="#000" stroke-width="5"/>
      <ellipse id="Ellipse_13" data-name="Ellipse 13" cx="2.724" cy="3.206" rx="2.724" ry="3.206" transform="translate(1548.387 439.276)" stroke="#000" stroke-width="5"/>
      <ellipse id="Ellipse_14" data-name="Ellipse 14" cx="2.724" cy="3.206" rx="2.724" ry="3.206" transform="translate(1548.387 527.662)" stroke="#000" stroke-width="5"/>
    </g>
  </g>
</svg>
