<svg xmlns="http://www.w3.org/2000/svg" width="1779" height="402" viewBox="0 0 1779 402">
  <g id="Decentralized" transform="translate(-91 -376)">
    <rect id="Rectangle_1" data-name="Rectangle 1" width="1779" height="402" transform="translate(91 376)" fill="none"/>
    <text id="Decentralized_Framework" data-name="Decentralized 
Framework" transform="translate(554 537)" font-size="150" font-family="ArialMT, Arial"><tspan x="0" y="0">Decentralized </tspan><tspan x="0" y="173">Framework</tspan></text>
    <g id="Group_3" data-name="Group 3" transform="translate(236.764 478.518)">
      <g id="Group_2" data-name="Group 2" transform="translate(0)">
        <path id="Path_35" data-name="Path 35" d="M211.119,128a83.119,83.119,0,1,0,83.119,83.119A83.119,83.119,0,0,0,211.119,128ZM272.9,175.787a70.514,70.514,0,0,1,9.161,29.394H252.536a158.757,158.757,0,0,0-2.909-25.791C257.939,178.483,265.776,177.272,272.9,175.787Zm-7.445-10.639c-5.854,1.057-12.135,1.941-18.749,2.63A87.083,87.083,0,0,0,236.2,144.517a71.423,71.423,0,0,1,29.258,20.631ZM181.57,205.182a145.947,145.947,0,0,1,2.921-24.692c8.594.623,17.538.944,26.628.944s18.034-.321,26.628-.944a145.95,145.95,0,0,1,2.921,24.692Zm59.1,11.874a146.028,146.028,0,0,1-2.921,24.692c-8.594-.623-17.538-.944-26.628-.944s-18.034.321-26.628.944a145.953,145.953,0,0,1-2.921-24.692Zm-29.549-77.182c8.561,0,17.692,10.909,23.54,28.913-7.617.493-15.5.772-23.54.772s-15.923-.279-23.54-.772C193.426,150.783,202.558,139.874,211.119,139.874Zm-25.078,4.643a87.085,87.085,0,0,0-10.509,23.261c-6.614-.689-12.9-1.573-18.749-2.63a71.423,71.423,0,0,1,29.258-20.631Zm-36.7,31.271c7.124,1.484,14.95,2.7,23.273,3.6a158.758,158.758,0,0,0-2.909,25.791H140.177a70.524,70.524,0,0,1,9.161-29.394Zm0,70.663a70.514,70.514,0,0,1-9.161-29.394H169.7a158.754,158.754,0,0,0,2.909,25.791c-8.312.908-16.149,2.12-23.273,3.6Zm7.445,10.639c5.854-1.057,12.135-1.941,18.749-2.63a87.083,87.083,0,0,0,10.509,23.261,71.43,71.43,0,0,1-29.258-20.631Zm54.336,25.274c-8.561,0-17.692-10.909-23.54-28.914,7.617-.493,15.5-.772,23.54-.772s15.923.279,23.54.772C228.811,271.454,219.68,282.364,211.119,282.364Zm25.078-4.643a87.084,87.084,0,0,0,10.509-23.261c6.614.689,12.9,1.573,18.749,2.63A71.429,71.429,0,0,1,236.2,277.721Zm36.7-31.271c-7.125-1.484-14.95-2.7-23.273-3.6a158.77,158.77,0,0,0,2.909-25.791h29.525A70.525,70.525,0,0,1,272.9,246.45Z" transform="translate(-128 -128)"/>
      </g>
    </g>
    <g id="Group_9" data-name="Group 9" transform="translate(129.184 613.587)">
      <g id="Group_8" data-name="Group 8">
        <path id="Path_38" data-name="Path 38" d="M76.349,437.408a6.941,6.941,0,0,0,6.941-6.941V374.94A6.941,6.941,0,0,0,76.35,368H6.941A6.941,6.941,0,0,0,0,374.941v55.526a6.941,6.941,0,0,0,6.941,6.941H34.7V451.29H0v13.882H83.29V451.29h-34.7V437.408ZM13.882,423.526V381.882H69.408v41.645Z" transform="translate(0 -368)"/>
      </g>
    </g>
    <g id="Group_56" data-name="Group 56" transform="translate(259.347 496.832) rotate(133)">
      <g id="Group_28" data-name="Group 28" transform="translate(0 0)">
        <rect id="Rectangle_9" data-name="Rectangle 9" width="11.874" height="36.18"/>
      </g>
    </g>
    <g id="Group_57" data-name="Group 57" transform="translate(414.453 641.667) rotate(133)">
      <g id="Group_28-2" data-name="Group 28" transform="translate(0 0)">
        <rect id="Rectangle_9-2" data-name="Rectangle 9" width="11.874" height="36.18"/>
      </g>
    </g>
    <g id="Group_59" data-name="Group 59" transform="matrix(0.695, 0.719, -0.719, 0.695, 252.402, 616.972)">
      <g id="Group_28-3" data-name="Group 28" transform="translate(0)">
        <rect id="Rectangle_9-3" data-name="Rectangle 9" width="11.874" height="37.948"/>
      </g>
    </g>
    <g id="Group_61" data-name="Group 61" transform="matrix(0.695, 0.719, -0.719, 0.695, 252.402, 616.972)">
      <g id="Group_28-4" data-name="Group 28" transform="translate(0)">
        <rect id="Rectangle_9-4" data-name="Rectangle 9" width="11.874" height="36.066"/>
      </g>
    </g>
    <g id="Group_62" data-name="Group 62" transform="matrix(0.695, 0.719, -0.719, 0.695, 403.766, 471.136)">
      <g id="Group_28-5" data-name="Group 28" transform="translate(0)">
        <rect id="Rectangle_9-5" data-name="Rectangle 9" width="11.874" height="36.066"/>
      </g>
    </g>
    <g id="Group_63" data-name="Group 63" transform="translate(426.927 429.932)">
      <g id="Group_8-2" data-name="Group 8">
        <path id="Path_38-2" data-name="Path 38" d="M76.349,437.408a6.941,6.941,0,0,0,6.941-6.941V374.94A6.941,6.941,0,0,0,76.35,368H6.941A6.941,6.941,0,0,0,0,374.941v55.526a6.941,6.941,0,0,0,6.941,6.941H34.7V451.29H0v13.882H83.29V451.29h-34.7V437.408ZM13.882,423.526V381.882H69.408v41.645Z" transform="translate(0 -368)"/>
      </g>
    </g>
    <g id="Group_114" data-name="Group 114" transform="translate(424.158 616.992)">
      <path id="Path_58" data-name="Path 58" d="M27.939,9.014H8a1.094,1.094,0,0,0-.983,1.177A1.094,1.094,0,0,0,8,11.369H27.939a1.094,1.094,0,0,0,.984-1.178A1.094,1.094,0,0,0,27.939,9.014Z" transform="translate(3.97 1.751)" stroke="#000" stroke-width="6"/>
      <path id="Path_59" data-name="Path 59" d="M80.68,0H5.379C2.408,0,0,2.139,0,4.777V19.108c0,2.638,2.408,4.777,5.379,4.777h75.3c2.969,0,5.379-2.139,5.379-4.777V4.777C86.058,2.139,83.65,0,80.68,0Zm2.689,19.108A2.555,2.555,0,0,1,80.68,21.5H5.379a2.555,2.555,0,0,1-2.689-2.389V4.777A2.555,2.555,0,0,1,5.379,2.389h75.3a2.555,2.555,0,0,1,2.689,2.389Z" stroke="#000" stroke-width="7"/>
      <path id="Path_60" data-name="Path 60" d="M27.939,31.014H8A1.2,1.2,0,0,0,8,33.37H27.939a1.2,1.2,0,0,0,0-2.356Z" transform="translate(3.969 14.692)" stroke="#000" stroke-width="6"/>
      <ellipse id="Ellipse_11" data-name="Ellipse 11" cx="2.022" cy="2.379" rx="2.022" ry="2.379" transform="translate(72.098 44.504)" stroke="#000" stroke-width="7"/>
      <path id="Path_61" data-name="Path 61" d="M80.68,22H5.379C2.408,22,0,24.139,0,26.777V41.108c0,2.638,2.408,4.777,5.379,4.777h75.3c2.969,0,5.379-2.139,5.379-4.777V26.777C86.058,24.139,83.65,22,80.68,22Zm2.689,19.108A2.555,2.555,0,0,1,80.68,43.5H5.379a2.555,2.555,0,0,1-2.689-2.389V26.777a2.555,2.555,0,0,1,2.689-2.389h75.3a2.555,2.555,0,0,1,2.689,2.389Z" transform="translate(0 12.94)" stroke="#000" stroke-width="7"/>
      <path id="Path_62" data-name="Path 62" d="M27.939,53.014H8A1.2,1.2,0,0,0,8,55.37H27.939a1.2,1.2,0,0,0,0-2.356Z" transform="translate(3.969 27.632)" stroke="#000" stroke-width="6"/>
      <path id="Path_63" data-name="Path 63" d="M80.68,44H5.379C2.408,44,0,46.139,0,48.777V63.108c0,2.638,2.408,4.777,5.379,4.777h75.3c2.969,0,5.379-2.139,5.379-4.777V48.777C86.058,46.139,83.65,44,80.68,44Zm2.689,19.108A2.555,2.555,0,0,1,80.68,65.5H5.379a2.555,2.555,0,0,1-2.689-2.389V48.777a2.555,2.555,0,0,1,2.689-2.389h75.3a2.555,2.555,0,0,1,2.689,2.389Z" transform="translate(0 25.88)" stroke="#000" stroke-width="7"/>
      <ellipse id="Ellipse_12" data-name="Ellipse 12" cx="2.022" cy="2.379" rx="2.022" ry="2.379" transform="translate(72.098 44.504)" stroke="#000" stroke-width="6"/>
      <ellipse id="Ellipse_13" data-name="Ellipse 13" cx="2.022" cy="2.379" rx="2.022" ry="2.379" transform="translate(72.098 9.564)" stroke="#000" stroke-width="6"/>
      <ellipse id="Ellipse_14" data-name="Ellipse 14" cx="2.022" cy="2.379" rx="2.022" ry="2.379" transform="translate(72.098 79.444)" stroke="#000" stroke-width="6"/>
    </g>
    <g id="Group_114-2" data-name="Group 114" transform="translate(123.822 425.273)">
      <path id="Path_58-2" data-name="Path 58" d="M27.939,9.014H8a1.094,1.094,0,0,0-.983,1.177A1.094,1.094,0,0,0,8,11.369H27.939a1.094,1.094,0,0,0,.984-1.178A1.094,1.094,0,0,0,27.939,9.014Z" transform="translate(3.97 1.751)" stroke="#000" stroke-width="6"/>
      <path id="Path_59-2" data-name="Path 59" d="M80.68,0H5.379C2.408,0,0,2.139,0,4.777V19.108c0,2.638,2.408,4.777,5.379,4.777h75.3c2.969,0,5.379-2.139,5.379-4.777V4.777C86.058,2.139,83.65,0,80.68,0Zm2.689,19.108A2.555,2.555,0,0,1,80.68,21.5H5.379a2.555,2.555,0,0,1-2.689-2.389V4.777A2.555,2.555,0,0,1,5.379,2.389h75.3a2.555,2.555,0,0,1,2.689,2.389Z" stroke="#000" stroke-width="7"/>
      <path id="Path_60-2" data-name="Path 60" d="M27.939,31.014H8A1.2,1.2,0,0,0,8,33.37H27.939a1.2,1.2,0,0,0,0-2.356Z" transform="translate(3.969 14.692)" stroke="#000" stroke-width="6"/>
      <ellipse id="Ellipse_11-2" data-name="Ellipse 11" cx="2.022" cy="2.379" rx="2.022" ry="2.379" transform="translate(72.098 44.504)" stroke="#000" stroke-width="7"/>
      <path id="Path_61-2" data-name="Path 61" d="M80.68,22H5.379C2.408,22,0,24.139,0,26.777V41.108c0,2.638,2.408,4.777,5.379,4.777h75.3c2.969,0,5.379-2.139,5.379-4.777V26.777C86.058,24.139,83.65,22,80.68,22Zm2.689,19.108A2.555,2.555,0,0,1,80.68,43.5H5.379a2.555,2.555,0,0,1-2.689-2.389V26.777a2.555,2.555,0,0,1,2.689-2.389h75.3a2.555,2.555,0,0,1,2.689,2.389Z" transform="translate(0 12.94)" stroke="#000" stroke-width="7"/>
      <path id="Path_62-2" data-name="Path 62" d="M27.939,53.014H8A1.2,1.2,0,0,0,8,55.37H27.939a1.2,1.2,0,0,0,0-2.356Z" transform="translate(3.969 27.632)" stroke="#000" stroke-width="6"/>
      <path id="Path_63-2" data-name="Path 63" d="M80.68,44H5.379C2.408,44,0,46.139,0,48.777V63.108c0,2.638,2.408,4.777,5.379,4.777h75.3c2.969,0,5.379-2.139,5.379-4.777V48.777C86.058,46.139,83.65,44,80.68,44Zm2.689,19.108A2.555,2.555,0,0,1,80.68,65.5H5.379a2.555,2.555,0,0,1-2.689-2.389V48.777a2.555,2.555,0,0,1,2.689-2.389h75.3a2.555,2.555,0,0,1,2.689,2.389Z" transform="translate(0 25.88)" stroke="#000" stroke-width="7"/>
      <ellipse id="Ellipse_12-2" data-name="Ellipse 12" cx="2.022" cy="2.379" rx="2.022" ry="2.379" transform="translate(72.098 44.504)" stroke="#000" stroke-width="6"/>
      <ellipse id="Ellipse_13-2" data-name="Ellipse 13" cx="2.022" cy="2.379" rx="2.022" ry="2.379" transform="translate(72.098 9.564)" stroke="#000" stroke-width="6"/>
      <ellipse id="Ellipse_14-2" data-name="Ellipse 14" cx="2.022" cy="2.379" rx="2.022" ry="2.379" transform="translate(72.098 79.444)" stroke="#000" stroke-width="6"/>
    </g>
  </g>
</svg>
