<svg xmlns="http://www.w3.org/2000/svg" width="1677" height="414" viewBox="0 0 1677 414">
  <g id="Encryption" transform="translate(-193 -359)">
    <rect id="Rectangle_1" data-name="Rectangle 1" width="1677" height="414" transform="translate(193 359)" fill="#fff"/>
    <text id="Homomorphic_Encryption" data-name="Homomorphic
Encryption" transform="translate(547 537)" font-size="150" font-family="ArialMT, Arial"><tspan x="0" y="0">Homomorphic</tspan><tspan x="0" y="173">Encryption</tspan></text>
    <g id="Group_126" data-name="Group 126" transform="translate(-951.537 155.12)">
      <g id="Group_125" data-name="Group 125" transform="translate(1188.825 247.818)">
        <g id="file" transform="translate(0 0)">
          <path id="Path_85" data-name="Path 85" d="M94.229,272.292H76.306a9.6,9.6,0,0,1-9.588-9.588V17.806a9.6,9.6,0,0,1,9.588-9.588H147.5A4.109,4.109,0,0,0,147.5,0H76.306A17.827,17.827,0,0,0,58.5,17.806V262.7A17.827,17.827,0,0,0,76.306,280.51H94.229a4.109,4.109,0,0,0,0-8.218Z" transform="translate(-58.5 0)" stroke="#000" stroke-width="5"/>
          <path id="Path_86" data-name="Path 86" d="M315.622,57.91l-56.7-56.7a4.179,4.179,0,0,0-2.1-1.124,6.334,6.334,0,0,0-.8-.081H208.591a4.109,4.109,0,1,0,0,8.218H251.9v38.9a17.827,17.827,0,0,0,17.806,17.806h38.9V262.7a9.6,9.6,0,0,1-9.588,9.588h-143.7a4.109,4.109,0,0,0,0,8.218h143.7A17.827,17.827,0,0,0,316.828,262.7V60.814a4.164,4.164,0,0,0-1.205-2.9ZM269.711,56.7a9.6,9.6,0,0,1-9.588-9.588V14.029L302.8,56.7Z" transform="translate(-100.419 0)" stroke="#000" stroke-width="5"/>
        </g>
        <rect id="Rectangle_26" data-name="Rectangle 26" width="111" height="112" transform="translate(156.712 199.062)" fill="#fff"/>
        <path id="Path_73" data-name="Path 73" d="M157.915,362H151.4A11.414,11.414,0,0,0,140,373.4v26.062a11.414,11.414,0,0,0,11.4,11.4h6.513a11.414,11.414,0,0,0,11.4-11.4V373.4A11.414,11.414,0,0,0,157.915,362Zm1.629,37.464a1.63,1.63,0,0,1-1.629,1.629H151.4a1.631,1.631,0,0,1-1.629-1.629V373.4a1.63,1.63,0,0,1,1.629-1.629h6.513a1.63,1.63,0,0,1,1.629,1.629Zm0,0" transform="translate(-69.26 -169.803)"/>
        <path id="Path_74" data-name="Path 74" d="M24.435,401.093H19.546V366.886A4.886,4.886,0,0,0,14.66,362H4.886a4.887,4.887,0,0,0,0,9.773H9.773v29.32H4.886a4.887,4.887,0,1,0,0,9.773H24.435a4.887,4.887,0,1,0,0-9.773Zm0,0" transform="translate(25.133 -169.803)"/>
        <path id="Path_76" data-name="Path 76" d="M304.435,401.093h-4.886V366.886A4.887,4.887,0,0,0,294.66,362h-9.773a4.887,4.887,0,1,0,0,9.773h4.886v29.32h-4.886a4.887,4.887,0,1,0,0,9.773h19.549a4.887,4.887,0,1,0,0-9.773Zm0,0" transform="translate(-163.651 -169.803)"/>
        <path id="Path_77" data-name="Path 77" d="M157.915,181H151.4A11.414,11.414,0,0,0,140,192.4v26.062a11.414,11.414,0,0,0,11.4,11.4h6.513a11.414,11.414,0,0,0,11.4-11.4V192.4a11.414,11.414,0,0,0-11.4-11.4Zm1.629,37.464a1.63,1.63,0,0,1-1.629,1.629H151.4a1.63,1.63,0,0,1-1.629-1.629V192.4a1.63,1.63,0,0,1,1.629-1.629h6.513a1.63,1.63,0,0,1,1.629,1.629Zm0,0" transform="translate(-69.26 -47.768)"/>
        <path id="Path_78" data-name="Path 78" d="M24.435,220.093H19.546V185.886A4.886,4.886,0,0,0,14.66,181H4.886a4.887,4.887,0,1,0,0,9.773H9.773v29.32H4.886a4.887,4.887,0,1,0,0,9.773H24.435a4.887,4.887,0,1,0,0-9.773Zm0,0" transform="translate(25.133 -47.768)"/>
        <path id="Path_79" data-name="Path 79" d="M297.915,181H291.4A11.414,11.414,0,0,0,280,192.4v26.062a11.414,11.414,0,0,0,11.4,11.4h6.513a11.414,11.414,0,0,0,11.4-11.4V192.4a11.414,11.414,0,0,0-11.4-11.4Zm1.629,37.464a1.63,1.63,0,0,1-1.629,1.629H291.4a1.631,1.631,0,0,1-1.629-1.629V192.4a1.63,1.63,0,0,1,1.629-1.629h6.513a1.63,1.63,0,0,1,1.629,1.629Zm0,0" transform="translate(-163.651 -47.768)"/>
        <path id="Path_80" data-name="Path 80" d="M444.435,220.093h-4.886V185.886A4.886,4.886,0,0,0,434.66,181h-9.773a4.887,4.887,0,1,0,0,9.773h4.886v29.32h-4.886a4.887,4.887,0,1,0,0,9.773h19.549a4.887,4.887,0,0,0,0-9.773Zm0,0" transform="translate(-258.043 -47.768)"/>
        <path id="Path_81" data-name="Path 81" d="M17.915,0H11.4A11.414,11.414,0,0,0,0,11.4V37.464a11.414,11.414,0,0,0,11.4,11.4h6.513a11.414,11.414,0,0,0,11.4-11.4V11.4A11.414,11.414,0,0,0,17.915,0Zm1.629,37.464a1.63,1.63,0,0,1-1.629,1.629H11.4a1.63,1.63,0,0,1-1.629-1.629V11.4A1.63,1.63,0,0,1,11.4,9.773h6.513A1.63,1.63,0,0,1,19.544,11.4Zm0,0" transform="translate(25.132 74.267)"/>
        <path id="Path_82" data-name="Path 82" d="M164.435,39.093h-4.886V4.886A4.886,4.886,0,0,0,154.66,0h-9.773a4.887,4.887,0,1,0,0,9.773h4.886V39.093h-4.886a4.887,4.887,0,1,0,0,9.773h19.549a4.887,4.887,0,1,0,0-9.773Zm0,0" transform="translate(-69.259 74.267)"/>
        <path id="Path_83" data-name="Path 83" d="M437.915,0H431.4A11.414,11.414,0,0,0,420,11.4V37.464a11.414,11.414,0,0,0,11.4,11.4h6.514a11.414,11.414,0,0,0,11.4-11.4V11.4A11.414,11.414,0,0,0,437.915,0Zm1.629,37.464a1.63,1.63,0,0,1-1.629,1.629H431.4a1.63,1.63,0,0,1-1.629-1.629V11.4A1.63,1.63,0,0,1,431.4,9.773h6.514a1.63,1.63,0,0,1,1.629,1.629Zm0,0" transform="translate(-258.043 74.267)"/>
        <path id="Path_84" data-name="Path 84" d="M304.435,39.093h-4.886V4.886A4.886,4.886,0,0,0,294.66,0h-9.773a4.887,4.887,0,1,0,0,9.773h4.886V39.093h-4.886a4.887,4.887,0,1,0,0,9.773h19.549a4.887,4.887,0,1,0,0-9.773Zm0,0" transform="translate(-163.651 74.267)"/>
        <g id="door-key" transform="translate(170.357 215.923)">
          <g id="Group_121" data-name="Group 121" transform="translate(0 0)">
            <g id="Group_120" data-name="Group 120">
              <path id="Path_87" data-name="Path 87" d="M7.387,70.372a25.284,25.284,0,0,0,42.3-24.422L77.017,18.62a2.528,2.528,0,0,0,.741-1.788V2.528A2.529,2.529,0,0,0,75.23,0h-14.3a2.528,2.528,0,0,0-1.787.74L55.561,4.317A2.528,2.528,0,0,0,54.82,6.1v4.623H50.2a2.528,2.528,0,0,0-1.787.74l-3.576,3.576a2.528,2.528,0,0,0-.739,1.788v4.623H39.469a2.528,2.528,0,0,0-1.787.74L31.808,28.07a25.284,25.284,0,0,0-24.421,42.3Zm3.574-32.186a20.142,20.142,0,0,1,20.764-4.865,2.528,2.528,0,0,0,2.591-.61l6.2-6.2h6.1a2.529,2.529,0,0,0,2.528-2.528V17.881l2.1-2.1h6.1a2.529,2.529,0,0,0,2.528-2.528V7.152l2.095-2.1H72.7V15.786L45.044,43.442a2.528,2.528,0,0,0-.61,2.591A20.229,20.229,0,1,1,10.96,38.188Z" transform="translate(0.021 0)" stroke="#000" stroke-width="5"/>
            </g>
          </g>
          <g id="Group_123" data-name="Group 123" transform="translate(11.6 45.952)">
            <g id="Group_122" data-name="Group 122" transform="translate(0 0)">
              <path id="Path_88" data-name="Path 88" d="M305.536,93.556a10.115,10.115,0,1,0,0-14.3,10.115,10.115,0,0,0,0,14.3Zm3.574-10.728a5.057,5.057,0,1,1,0,7.152,5.057,5.057,0,0,1,0-7.152Z" transform="translate(-302.578 -76.289)" stroke="#000" stroke-width="5"/>
            </g>
          </g>
        </g>
        <g id="dry-clean_1_" data-name="dry-clean (1)" transform="translate(150.699 192.197)">
          <g id="Group_124" data-name="Group 124" transform="translate(0 0)">
            <path id="Path_89" data-name="Path 89" d="M60.78,0a60.779,60.779,0,1,0,60.78,60.779A60.779,60.779,0,0,0,60.78,0Zm0,116.494a55.715,55.715,0,1,1,55.715-55.715A55.715,55.715,0,0,1,60.78,116.494Z" transform="translate(-0.001 0)" stroke="#000" stroke-width="5"/>
          </g>
        </g>
      </g>
      <rect id="Rectangle_27" data-name="Rectangle 27" width="350" height="388" transform="translate(1144.537 203.88)" fill="none"/>
    </g>
  </g>
</svg>
