<svg xmlns="http://www.w3.org/2000/svg" width="638" height="708" viewBox="0 0 638 708">
  <g id="Group_126" data-name="Group 126" transform="translate(-1145 -204)">
    <g id="Group_125" data-name="Group 125">
      <g id="file" transform="translate(1166.5 284)">
        <path id="Path_85" data-name="Path 85" d="M123.714,497H91a17.521,17.521,0,0,1-17.5-17.5V32.5A17.521,17.521,0,0,1,91,15H220.942a7.5,7.5,0,0,0,0-15H91A32.538,32.538,0,0,0,58.5,32.5v447A32.538,32.538,0,0,0,91,512h32.714a7.5,7.5,0,0,0,0-15Z"/>
        <path id="Path_86" data-name="Path 86" d="M451.3,105.7,347.8,2.2a7.627,7.627,0,0,0-3.84-2.052A11.562,11.562,0,0,0,342.5,0H255.942a7.5,7.5,0,1,0,0,15H335V86a32.538,32.538,0,0,0,32.5,32.5h71v361A17.521,17.521,0,0,1,421,497H158.714a7.5,7.5,0,0,0,0,15H421a32.538,32.538,0,0,0,32.5-32.5V111A7.6,7.6,0,0,0,451.3,105.7Zm-83.8-2.2A17.521,17.521,0,0,1,350,86V25.606L427.894,103.5Z"/>
      </g>
      <rect id="Rectangle_26" data-name="Rectangle 26" width="201" height="204" transform="translate(1512 647)" fill="#fff"/>
      <path id="Path_73" data-name="Path 73" d="M172.7,362H160.812A20.834,20.834,0,0,0,140,382.812v47.569a20.834,20.834,0,0,0,20.812,20.812H172.7a20.834,20.834,0,0,0,20.812-20.812V382.812A20.834,20.834,0,0,0,172.7,362Zm2.973,68.381a2.976,2.976,0,0,1-2.973,2.973H160.812a2.976,2.976,0,0,1-2.973-2.973V382.812a2.976,2.976,0,0,1,2.973-2.973H172.7a2.976,2.976,0,0,1,2.973,2.973Zm0,0" transform="translate(1214.119 272.807)"/>
      <path id="Path_74" data-name="Path 74" d="M44.6,433.354H35.677V370.919A8.919,8.919,0,0,0,26.758,362H8.919a8.919,8.919,0,0,0,0,17.839h8.919v53.516H8.919a8.919,8.919,0,0,0,0,17.839H44.6a8.919,8.919,0,0,0,0-17.839Zm0,0" transform="translate(1270.873 272.807)"/>
      <path id="Path_76" data-name="Path 76" d="M324.6,433.354h-8.919V370.919A8.919,8.919,0,0,0,306.758,362H288.919a8.919,8.919,0,1,0,0,17.839h8.919v53.516h-8.919a8.919,8.919,0,1,0,0,17.839H324.6a8.919,8.919,0,0,0,0-17.839Zm0,0" transform="translate(1157.366 272.807)"/>
      <path id="Path_77" data-name="Path 77" d="M172.7,181H160.812A20.834,20.834,0,0,0,140,201.812v47.569a20.834,20.834,0,0,0,20.812,20.812H172.7a20.834,20.834,0,0,0,20.812-20.812V201.812A20.834,20.834,0,0,0,172.7,181Zm2.973,68.381a2.976,2.976,0,0,1-2.973,2.973H160.812a2.976,2.976,0,0,1-2.973-2.973V201.812a2.976,2.976,0,0,1,2.973-2.973H172.7a2.976,2.976,0,0,1,2.973,2.973Zm0,0" transform="translate(1214.119 346.181)"/>
      <path id="Path_78" data-name="Path 78" d="M44.6,252.354H35.677V189.919A8.919,8.919,0,0,0,26.758,181H8.919a8.919,8.919,0,0,0,0,17.839h8.919v53.516H8.919a8.919,8.919,0,1,0,0,17.839H44.6a8.919,8.919,0,1,0,0-17.839Zm0,0" transform="translate(1270.873 346.181)"/>
      <path id="Path_79" data-name="Path 79" d="M312.7,181H300.812A20.834,20.834,0,0,0,280,201.812v47.569a20.834,20.834,0,0,0,20.812,20.812H312.7a20.834,20.834,0,0,0,20.812-20.812V201.812A20.834,20.834,0,0,0,312.7,181Zm2.973,68.381a2.976,2.976,0,0,1-2.973,2.973H300.812a2.976,2.976,0,0,1-2.973-2.973V201.812a2.976,2.976,0,0,1,2.973-2.973H312.7a2.976,2.976,0,0,1,2.973,2.973Zm0,0" transform="translate(1157.366 346.181)"/>
      <path id="Path_80" data-name="Path 80" d="M464.6,252.354h-8.919V189.919A8.919,8.919,0,0,0,446.758,181H428.919a8.919,8.919,0,1,0,0,17.839h8.919v53.516h-8.919a8.919,8.919,0,1,0,0,17.839H464.6a8.919,8.919,0,1,0,0-17.839Zm0,0" transform="translate(1100.612 346.181)"/>
      <path id="Path_81" data-name="Path 81" d="M32.7,0H20.812A20.834,20.834,0,0,0,0,20.812V68.381A20.834,20.834,0,0,0,20.812,89.193H32.7A20.834,20.834,0,0,0,53.516,68.381V20.812A20.834,20.834,0,0,0,32.7,0Zm2.973,68.381A2.976,2.976,0,0,1,32.7,71.354H20.812a2.976,2.976,0,0,1-2.973-2.973V20.812a2.976,2.976,0,0,1,2.973-2.973H32.7a2.976,2.976,0,0,1,2.973,2.973Zm0,0" transform="translate(1270.873 419.556)"/>
      <path id="Path_82" data-name="Path 82" d="M184.6,71.354h-8.919V8.919A8.919,8.919,0,0,0,166.758,0H148.919a8.919,8.919,0,0,0,0,17.839h8.919V71.354h-8.919a8.919,8.919,0,0,0,0,17.839H184.6a8.919,8.919,0,0,0,0-17.839Zm0,0" transform="translate(1214.119 419.556)"/>
      <path id="Path_83" data-name="Path 83" d="M452.7,0H440.811A20.834,20.834,0,0,0,420,20.812V68.381a20.834,20.834,0,0,0,20.811,20.812H452.7a20.834,20.834,0,0,0,20.812-20.812V20.812A20.834,20.834,0,0,0,452.7,0Zm2.973,68.381a2.976,2.976,0,0,1-2.973,2.973H440.811a2.976,2.976,0,0,1-2.973-2.973V20.812a2.976,2.976,0,0,1,2.973-2.973H452.7a2.976,2.976,0,0,1,2.973,2.973Zm0,0" transform="translate(1100.612 419.556)"/>
      <path id="Path_84" data-name="Path 84" d="M324.6,71.354h-8.919V8.919A8.919,8.919,0,0,0,306.758,0H288.919a8.919,8.919,0,1,0,0,17.839h8.919V71.354h-8.919a8.919,8.919,0,1,0,0,17.839H324.6a8.919,8.919,0,0,0,0-17.839Zm0,0" transform="translate(1157.366 419.556)"/>
      <g id="door-key" transform="translate(1535.966 678.114)">
        <g id="Group_121" data-name="Group 121" transform="translate(0)">
          <g id="Group_120" data-name="Group 120">
            <path id="Path_87" data-name="Path 87" d="M13.5,128.447A46.149,46.149,0,0,0,90.709,83.87l49.883-49.883a4.615,4.615,0,0,0,1.352-3.263V4.615A4.616,4.616,0,0,0,137.329,0H111.22a4.615,4.615,0,0,0-3.263,1.352l-6.527,6.527a4.615,4.615,0,0,0-1.352,3.263v8.439H91.638a4.615,4.615,0,0,0-3.263,1.352l-6.527,6.527A4.615,4.615,0,0,0,80.5,30.724v8.439H72.057a4.615,4.615,0,0,0-3.263,1.352L58.075,51.234A46.15,46.15,0,0,0,13.5,128.447ZM20.024,69.7a36.765,36.765,0,0,1,37.9-8.879,4.615,4.615,0,0,0,4.73-1.113L73.968,48.395H85.11a4.616,4.616,0,0,0,4.615-4.615V32.637l3.824-3.824h11.143a4.616,4.616,0,0,0,4.615-4.615V13.055l3.823-3.824h19.582V28.813L82.234,79.292a4.615,4.615,0,0,0-1.113,4.73,36.923,36.923,0,1,1-61.1-14.32Z" transform="translate(-0.001)" stroke="#000" stroke-width="5"/>
          </g>
        </g>
        <g id="Group_123" data-name="Group 123" transform="translate(21.152 83.884)">
          <g id="Group_122" data-name="Group 122" transform="translate(0)">
            <path id="Path_88" data-name="Path 88" d="M307.977,107.806a18.462,18.462,0,1,0,0-26.109A18.482,18.482,0,0,0,307.977,107.806ZM314.5,88.225a9.231,9.231,0,1,1,0,13.055A9.242,9.242,0,0,1,314.5,88.225Z" transform="translate(-302.578 -76.299)" stroke="#000" stroke-width="5"/>
          </g>
        </g>
      </g>
      <g id="dry-clean_1_" data-name="dry-clean (1)" transform="translate(1500.063 634.807)">
        <g id="Group_124" data-name="Group 124">
          <path id="Path_89" data-name="Path 89" d="M110.937,0A110.937,110.937,0,1,0,221.875,110.937,111.062,111.062,0,0,0,110.937,0Zm0,212.63A101.693,101.693,0,1,1,212.63,110.937,101.808,101.808,0,0,1,110.937,212.63Z" stroke="#000" stroke-width="5"/>
        </g>
      </g>
    </g>
    <rect id="Rectangle_27" data-name="Rectangle 27" width="638" height="708" transform="translate(1145 204)" fill="none"/>
  </g>
</svg>
