<svg xmlns="http://www.w3.org/2000/svg" width="545.674" height="438.745" viewBox="0 0 545.674 438.745">
  <g id="Group_3" data-name="Group 3" transform="translate(-1041.326 -347.533)">
    <path id="Path_1" data-name="Path 1" d="M265.131,145.231H109.206a7.437,7.437,0,0,1,0-14.874H265.131a7.437,7.437,0,0,1,0,14.874Z" transform="translate(1213.517 300.591)"/>
    <path id="Path_2" data-name="Path 2" d="M239.342,374.88a7.437,7.437,0,0,1-7.437-7.437V210.129H7.437a7.437,7.437,0,1,1,0-14.874H231.905V182.133a36.943,36.943,0,0,0-36.9-36.9H170.121a7.437,7.437,0,1,1,0-14.874H195a51.834,51.834,0,0,1,51.776,51.776v185.31a7.437,7.437,0,0,1-7.437,7.437Z" transform="translate(1340.221 300.591)"/>
    <path id="Path_3" data-name="Path 3" d="M7.436,307.366a7.437,7.437,0,0,1,7.437,7.437V435.4a36.942,36.942,0,0,0,36.9,36.9H434.092a36.942,36.942,0,0,0,36.9-36.9V400.623a7.437,7.437,0,1,1,14.874,0V435.4a51.834,51.834,0,0,1-51.776,51.775H51.775A51.833,51.833,0,0,1,0,435.4V314.8a7.436,7.436,0,0,1,7.436-7.437Z" transform="translate(1101.132 299.106)"/>
    <path id="Path_5" data-name="Path 5" d="M54.015,166.574a7.437,7.437,0,0,1,0,14.874H47.8a7.437,7.437,0,0,1,0-14.874Z" transform="translate(1485.522 300.287)"/>
    <path id="Path_6" data-name="Path 6" d="M100.61,174.011a7.437,7.437,0,0,1-7.437,7.437H86.96a7.437,7.437,0,1,1,0-14.874h6.212A7.437,7.437,0,0,1,100.61,174.011Z" transform="translate(1407.534 300.287)"/>
    <path id="Path_7" data-name="Path 7" d="M132.332,166.574a7.437,7.437,0,0,1,0,14.874h-6.212a7.437,7.437,0,1,1,0-14.874Z" transform="translate(1329.545 300.287)"/>
    <path id="Path_8" data-name="Path 8" d="M240.666,166.574a7.437,7.437,0,0,1,0,14.874H165.277a7.437,7.437,0,1,1,0-14.874Z" transform="translate(1182.381 300.287)"/>
    <path id="Path_10" data-name="Path 10" d="M61.045,266.65a7.437,7.437,0,0,1,14.874,0v41.7a7.437,7.437,0,1,1-14.874,0Z" transform="translate(1450.548 299.51)"/>
    <path id="Path_11" data-name="Path 11" d="M192.362,266.65a7.437,7.437,0,0,1,14.874,0v41.7a7.437,7.437,0,1,1-14.874,0Z" transform="translate(1189.016 299.51)"/>
    <path id="Path_12" data-name="Path 12" d="M110.5,282.713a23.5,23.5,0,0,1,47,0v9.576a23.5,23.5,0,0,1-47,0Zm14.874,9.576a8.626,8.626,0,1,0,17.252,0v-9.576a8.626,8.626,0,0,0-17.252,0Z" transform="translate(1319.919 299.51)"/>
    <path id="Path_13" data-name="Path 13" d="M68.482,364.677a7.437,7.437,0,0,1,7.437,7.437v41.7a7.437,7.437,0,0,1-14.874,0v-41.7A7.437,7.437,0,0,1,68.482,364.677Z" transform="translate(1450.548 298.625)"/>
    <path id="Path_14" data-name="Path 14" d="M199.8,364.677a7.437,7.437,0,0,1,7.437,7.437v41.7a7.437,7.437,0,0,1-14.874,0v-41.7A7.437,7.437,0,0,1,199.8,364.677Z" transform="translate(1189.016 298.625)"/>
    <path id="Path_15" data-name="Path 15" d="M134.005,364.677a23.527,23.527,0,0,1,23.5,23.5v9.576a23.5,23.5,0,0,1-47,0v-9.576A23.528,23.528,0,0,1,134.005,364.677Zm-8.625,33.075a8.626,8.626,0,0,0,17.252,0v-9.576a8.626,8.626,0,0,0-17.252,0Z" transform="translate(1319.917 298.625)"/>
    <path id="Path_16" data-name="Path 16" d="M334.221,372.114v41.7a7.437,7.437,0,0,1-14.874,0v-41.7a7.437,7.437,0,0,1,14.874,0Z" transform="translate(936.111 298.625)"/>
    <path id="Path_17" data-name="Path 17" d="M284.489,388.176v9.576a23.5,23.5,0,0,1-47,0v-9.576a23.5,23.5,0,0,1,47,0Zm-32.126,0v9.576a8.626,8.626,0,0,0,17.252,0v-9.576a8.626,8.626,0,0,0-17.252,0Z" transform="translate(1067.014 298.625)"/>
    <path id="Path_18" data-name="Path 18" d="M415.807,388.176v9.576a23.5,23.5,0,0,1-47,0v-9.576a23.5,23.5,0,0,1,47,0Zm-32.126,0v9.576a8.626,8.626,0,0,0,17.252,0v-9.576a8.626,8.626,0,0,0-17.252,0Z" transform="translate(805.479 298.625)"/>
    <path id="Path_19" data-name="Path 19" d="M265.131,145.231H109.206a7.437,7.437,0,0,1,0-14.874H265.131a7.437,7.437,0,0,1,0,14.874Z" transform="translate(1271.602 300.591)"/>
    <path id="Path_20" data-name="Path 20" d="M7.437,14.874A7.437,7.437,0,1,1,7.437,0H82.826a7.437,7.437,0,0,1,0,14.874Z" transform="translate(1572.126 719.877) rotate(-90)"/>
    <path id="Path_21" data-name="Path 21" d="M240.666,166.574a7.437,7.437,0,0,1,0,14.874H165.277a7.437,7.437,0,1,1,0-14.874Z" transform="translate(1182.381 300.287)"/>
    <path id="XMLID_1381_" d="M266.952,181.044a46.291,46.291,0,0,0-46.24,46.24v6.481A23.865,23.865,0,0,0,197,257.6v31.233a69.952,69.952,0,0,0,139.9,0V257.6a23.865,23.865,0,0,0-23.713-23.835v-6.481a46.291,46.291,0,0,0-46.24-46.24Zm0,23.713a22.552,22.552,0,0,1,22.527,22.527v6.475H244.425v-6.475A22.552,22.552,0,0,1,266.952,204.757Zm46.24,84.075a46.24,46.24,0,0,1-92.479,0V257.6a.128.128,0,0,1,.128-.128h92.223a.128.128,0,0,1,.128.128Z" transform="translate(908.588 211.833)"/>
    <path id="XMLID_1383_" d="M257.856,261.56A11.857,11.857,0,0,0,246,273.416v11.01a11.856,11.856,0,0,0,23.713,0v-11.01A11.857,11.857,0,0,0,257.856,261.56Z" transform="translate(917.684 226.779)"/>
    <path id="Path_22" data-name="Path 22" d="M284.489,388.176v9.576a23.5,23.5,0,0,1-47,0v-9.576a23.5,23.5,0,0,1,47,0Zm-32.126,0v9.576a8.626,8.626,0,0,0,17.252,0v-9.576a8.626,8.626,0,0,0-17.252,0Z" transform="translate(1067.014 194.048)"/>
    <path id="Path_23" data-name="Path 23" d="M192.362,266.65a7.437,7.437,0,0,1,14.874,0v41.7a7.437,7.437,0,1,1-14.874,0Z" transform="translate(1644.565 274.499) rotate(90)"/>
    <path id="Path_24" data-name="Path 24" d="M192.362,266.65a7.437,7.437,0,0,1,14.874,0v41.7a7.437,7.437,0,1,1-14.874,0Z" transform="translate(1639.004 303.499) rotate(90)"/>
    <g id="dry-clean" transform="translate(1041.326 347.533)">
      <g id="Group_2" data-name="Group 2">
        <path id="Path_43" data-name="Path 43" d="M134.214,0C60.2,0,0,60.21,0,134.214S60.2,268.428,134.214,268.428s134.214-60.21,134.214-134.214S208.224,0,134.214,0Zm0,257.244a123.03,123.03,0,1,1,123.03-123.03A123.169,123.169,0,0,1,134.214,257.244Z"/>
      </g>
    </g>
  </g>
</svg>
