<svg xmlns="http://www.w3.org/2000/svg" width="1780" height="389" viewBox="0 0 1780 389">
  <g id="Privacy" transform="translate(-90 -377)">
    <rect id="Rectangle_1" data-name="Rectangle 1" width="1780" height="389" transform="translate(90 377)" fill="none"/>
    <text id="Blockchain" transform="translate(541 708)" font-size="150" font-family="ArialMT, Arial"><tspan x="0" y="0">Blockchain</tspan></text>
    <g id="Group_3" data-name="Group 3" transform="translate(-907.651 60.467)">
      <path id="Path_1" data-name="Path 1" d="M214.5,140.621H106.9a5.132,5.132,0,1,1,0-10.264H214.5a5.132,5.132,0,0,1,0,10.264Z" transform="translate(1128.603 274.736)" stroke="#000" stroke-width="4"/>
      <path id="Path_2" data-name="Path 2" d="M165.158,299.091a5.132,5.132,0,0,1-5.132-5.132V185.4H5.132a5.132,5.132,0,0,1,0-10.264H160.026v-9.055a25.493,25.493,0,0,0-25.463-25.463H117.392a5.132,5.132,0,0,1,0-10.264H134.56a35.768,35.768,0,0,1,35.728,35.728V293.96a5.132,5.132,0,0,1-5.132,5.132Z" transform="translate(1247.578 274.736)" stroke="#000" stroke-width="4"/>
      <path id="Path_3" data-name="Path 3" d="M5.131,307.365a5.132,5.132,0,0,1,5.132,5.132v83.218a25.492,25.492,0,0,0,25.463,25.463H299.545a25.492,25.492,0,0,0,25.463-25.463v-24a5.132,5.132,0,1,1,10.264,0v24a35.768,35.768,0,0,1-35.728,35.727H35.727A35.767,35.767,0,0,1,0,395.715v-83.22a5.131,5.131,0,0,1,5.132-5.132Z" transform="translate(1082.595 218.849)" stroke="#020202" stroke-width="4"/>
      <path id="Path_5" data-name="Path 5" d="M49.784,166.574a5.132,5.132,0,0,1,0,10.264H45.495a5.132,5.132,0,1,1,0-10.264Z" transform="translate(1335.333 262.301)"/>
      <path id="Path_6" data-name="Path 6" d="M94.074,171.706a5.132,5.132,0,0,1-5.132,5.132H84.655a5.132,5.132,0,1,1,0-10.264h4.287a5.132,5.132,0,0,1,5.133,5.133Z" transform="translate(1269.38 262.301)"/>
      <path id="Path_7" data-name="Path 7" d="M128.1,166.574a5.132,5.132,0,0,1,0,10.264h-4.287a5.132,5.132,0,0,1,0-10.264Z" transform="translate(1203.426 262.301)"/>
      <path id="Path_8" data-name="Path 8" d="M214.994,166.574a5.132,5.132,0,1,1,0,10.264H162.972a5.132,5.132,0,1,1,0-10.264Z" transform="translate(1089.738 262.301)"/>
      <path id="Path_10" data-name="Path 10" d="M61.045,264.345a5.132,5.132,0,1,1,10.264,0V293.12a5.132,5.132,0,1,1-10.264,0Z" transform="translate(1304.789 234.052)"/>
      <path id="Path_11" data-name="Path 11" d="M192.362,264.345a5.132,5.132,0,1,1,10.264,0V293.12a5.132,5.132,0,1,1-10.264,0Z" transform="translate(1083.617 234.052)"/>
      <path id="Path_12" data-name="Path 12" d="M110.5,275.429a16.216,16.216,0,0,1,32.432,0v6.608a16.216,16.216,0,0,1-32.432,0Zm10.264,6.608a5.952,5.952,0,0,0,11.9,0v-6.608a5.952,5.952,0,1,0-11.9,0Z" transform="translate(1199.319 234.052)"/>
      <path id="Path_13" data-name="Path 13" d="M66.177,364.677a5.132,5.132,0,0,1,5.132,5.132v28.775a5.132,5.132,0,0,1-10.264,0V369.809A5.132,5.132,0,0,1,66.177,364.677Z" transform="translate(1304.789 200.752)"/>
      <path id="Path_14" data-name="Path 14" d="M197.495,364.677a5.132,5.132,0,0,1,5.132,5.132v28.775a5.132,5.132,0,0,1-10.264,0V369.809a5.132,5.132,0,0,1,5.132-5.132Z" transform="translate(1083.616 200.752)"/>
      <path id="Path_15" data-name="Path 15" d="M126.721,364.677a16.235,16.235,0,0,1,16.216,16.216V387.5a16.216,16.216,0,1,1-32.432,0v-6.608a16.236,16.236,0,0,1,16.216-16.216ZM120.769,387.5a5.952,5.952,0,0,0,11.9,0v-6.608a5.952,5.952,0,0,0-11.9,0Z" transform="translate(1199.317 200.752)"/>
      <path id="Path_16" data-name="Path 16" d="M329.611,369.809v28.775a5.132,5.132,0,0,1-10.264,0V369.809a5.132,5.132,0,1,1,10.264,0Z" transform="translate(869.741 200.752)"/>
      <path id="Path_17" data-name="Path 17" d="M269.921,380.892V387.5a16.216,16.216,0,0,1-32.432,0v-6.608a16.216,16.216,0,0,1,32.432,0Zm-22.169,0V387.5a5.952,5.952,0,1,0,11.9,0v-6.608a5.952,5.952,0,1,0-11.9,0Z" transform="translate(985.442 200.753)"/>
      <path id="Path_18" data-name="Path 18" d="M401.239,380.892V387.5a16.216,16.216,0,0,1-32.432,0v-6.608a16.216,16.216,0,1,1,32.432,0Zm-22.169,0V387.5a5.952,5.952,0,1,0,11.9,0v-6.608a5.952,5.952,0,1,0-11.9,0Z" transform="translate(764.268 200.753)"/>
      <path id="Path_19" data-name="Path 19" d="M214.5,140.621H106.9a5.132,5.132,0,1,1,0-10.264H214.5a5.132,5.132,0,0,1,0,10.264Z" transform="translate(1168.685 274.736)" stroke="#000" stroke-width="4"/>
      <path id="Path_20" data-name="Path 20" d="M5.132,10.264A5.132,5.132,0,1,1,5.132,0H57.154a5.132,5.132,0,1,1,0,10.264Z" transform="translate(1407.604 604.469) rotate(-90)" stroke="#050505" stroke-width="4"/>
      <path id="Path_21" data-name="Path 21" d="M214.994,166.574a5.132,5.132,0,1,1,0,10.264H162.972a5.132,5.132,0,1,1,0-10.264Z" transform="translate(1089.738 262.301)"/>
      <path id="XMLID_1381_" d="M245.27,181.044a31.943,31.943,0,0,0-31.908,31.908v4.472A16.468,16.468,0,0,0,197,233.871v21.552a48.27,48.27,0,1,0,96.539,0V233.871a16.468,16.468,0,0,0-16.363-16.447v-4.472a31.943,31.943,0,0,0-31.908-31.908Zm0,16.363a15.562,15.562,0,0,1,15.545,15.545v4.468h-31.09v-4.468A15.562,15.562,0,0,1,245.27,197.407Zm31.908,58.016a31.908,31.908,0,1,1-63.815,0V233.871a.088.088,0,0,1,.088-.088H277.09a.088.088,0,0,1,.088.088Z" transform="translate(888.67 197.779)"/>
      <path id="XMLID_1383_" d="M254.181,261.56A8.182,8.182,0,0,0,246,269.741v7.6a8.182,8.182,0,0,0,16.363,0v-7.6a8.182,8.182,0,0,0-8.181-8.181Z" transform="translate(879.759 183.136)"/>
      <path id="Path_22" data-name="Path 22" d="M269.921,380.892V387.5a16.216,16.216,0,0,1-32.432,0v-6.608a16.216,16.216,0,0,1,32.432,0Zm-22.169,0V387.5a5.952,5.952,0,1,0,11.9,0v-6.608a5.952,5.952,0,1,0-11.9,0Z" transform="translate(985.442 128.589)"/>
      <path id="Path_23" data-name="Path 23" d="M0,5.132a5.132,5.132,0,1,1,10.264,0V33.907A5.132,5.132,0,1,1,0,33.907Z" transform="translate(1278.721 428.875) rotate(90)"/>
      <path id="Path_24" data-name="Path 24" d="M0,5.132a5.132,5.132,0,1,1,10.264,0V33.907A5.132,5.132,0,1,1,0,33.907Z" transform="translate(1274.884 449.887) rotate(90)" stroke="#000" stroke-width="4"/>
      <g id="dry-clean" transform="translate(1041.326 347.533)">
        <g id="Group_2" data-name="Group 2">
          <path id="Path_43" data-name="Path 43" d="M92.614,0a92.614,92.614,0,1,0,92.614,92.614A92.716,92.716,0,0,0,92.614,0Zm0,177.511a84.9,84.9,0,1,1,84.9-84.9,84.9,84.9,0,0,1-84.9,84.9Z" stroke="#0a0a0a" stroke-width="5"/>
        </g>
      </g>
    </g>
  </g>
</svg>
