<svg xmlns="http://www.w3.org/2000/svg" width="634.629" height="522.271" viewBox="0 0 634.629 522.271">
  <g id="Group_1" data-name="Group 1" transform="translate(-1083.672 -182.941)">
    <path id="Path_11" data-name="Path 11" d="M39.345,45.421H77.059V31.406a6.772,6.772,0,0,1,6.772-6.772H288.268a6.772,6.772,0,0,1,6.772,6.772V45.421h49a29.376,29.376,0,0,1,29.345,29.345V123.56a100.233,100.233,0,0,1,161.348,79.5v30.353a24.214,24.214,0,0,1,15.551,17.234,30.319,30.319,0,0,1-18.561,35.5v6.476a98.5,98.5,0,0,1-51.009,86.23V408.6l53.423,22.8c.125.054.248.113.369.172a56.343,56.343,0,0,1,30.771,45.449c.016.186.024.375.024.564v62.552a6.772,6.772,0,0,1-6.772,6.772H302.584a6.772,6.772,0,0,1-6.772-6.772v-61.5H39.345A29.377,29.377,0,0,1,10,449.286V74.764A29.377,29.377,0,0,1,39.345,45.421ZM281.5,38.178H90.6V63.443H281.5ZM521.19,203.056a86.744,86.744,0,0,0-173.489,0v30.831c16.781,1.814,68.008,4.551,109.142-22.724-28.264-3.767-62.717-12.445-88.27-32.042a6.771,6.771,0,1,1,8.24-10.747c46.485,35.654,129.531,31.894,130.36,31.85a6.781,6.781,0,0,1,7.111,6.351l2.032,33.446,4.419-2.269a.86.86,0,0,0,.451-.586Zm-3.01,89.562v-11.6a6.772,6.772,0,0,1,5.6-6.672,16.758,16.758,0,0,0,13.345-20.476,10.551,10.551,0,0,0-6.032-7.325,14.3,14.3,0,0,1-4.176,3.26l-11.061,5.678a8.664,8.664,0,0,1-12.6-7.017c0-.043-.007-.085-.009-.128l-2.1-34.407c-5.53.052-14.083-.038-24.481-.763-55.31,47.052-133.585,33.914-136.933,33.326a6.749,6.749,0,0,1-2-.71,10.729,10.729,0,0,0-8.288,8.086A16.754,16.754,0,0,0,342.8,274.342a6.772,6.772,0,0,1,5.6,6.672v11.6a84.885,84.885,0,1,0,169.77,0Zm-144.8,78.036v40.935L380.4,408.6v-33Q376.779,373.275,373.383,370.653Zm20.56,12.179v24.314a96.388,96.388,0,0,0,73.229,0V385.038A98.408,98.408,0,0,1,393.942,382.833ZM309.356,533.364h242.4v-55.5a42.731,42.731,0,0,0-23.138-34.1L472.228,419.7a109.873,109.873,0,0,1-83.353,0L332.481,443.77a42.727,42.727,0,0,0-23.125,34.1ZM23.544,449.288a15.816,15.816,0,0,0,15.8,15.8H298.2a56.371,56.371,0,0,1,28.405-33.521c.121-.062.244-.113.369-.172l32.863-14.027V358.061a98.029,98.029,0,0,1-24.973-65.443v-6.476a30.317,30.317,0,0,1-18.561-35.5A24.266,24.266,0,0,1,334.157,232.7V203.056a99.893,99.893,0,0,1,25.682-66.949V74.764a15.816,15.816,0,0,0-15.8-15.8h-49V70.213a6.772,6.772,0,0,1-6.772,6.772H83.831a6.772,6.772,0,0,1-6.772-6.772V58.964H39.345a15.816,15.816,0,0,0-15.8,15.8Z" transform="translate(1153 158.307)"/>
    <rect id="Rectangle_3" data-name="Rectangle 3" width="83" height="223" transform="translate(1119 383)" fill="#fff"/>
    <path id="Path_12" data-name="Path 12" d="M403.49,221.686H453a6.772,6.772,0,0,1,0,13.544H403.49a6.772,6.772,0,1,1,0-13.544Z" transform="translate(855.596 183.208)"/>
    <path id="Path_15" data-name="Path 15" d="M332.25,300.126a6.772,6.772,0,1,1,0-13.544h89.682a6.772,6.772,0,1,1,0,13.544Z" transform="translate(952.529 186.01)"/>
    <path id="Path_16" data-name="Path 16" d="M305.848,286.582H311.9a6.772,6.772,0,1,1,0,13.544h-6.051a6.772,6.772,0,1,1,0-13.544Z" transform="translate(1092.362 186.01)"/>
    <path id="Path_17" data-name="Path 17" d="M284.379,286.582a6.772,6.772,0,0,1,0,13.544H245.984a6.772,6.772,0,1,1,0-13.544Z" transform="translate(1187.448 186.01)"/>
    <path id="Path_19" data-name="Path 19" d="M387.169,346.563h4.869a6.772,6.772,0,0,1,0,13.544h-4.866a6.772,6.772,0,1,1,0-13.544Z" transform="translate(920.436 193.727)"/>
    <path id="Path_20" data-name="Path 20" d="M337.673,346.563h36.81a6.772,6.772,0,0,1,0,13.544H337.672a6.772,6.772,0,1,1,0-13.544Z" transform="translate(998.213 193.727)"/>
    <path id="Path_21" data-name="Path 21" d="M245.984,346.563H319.6a6.772,6.772,0,1,1,0,13.544H245.984a6.772,6.772,0,1,1,0-13.544Z" transform="translate(1152.226 193.727)"/>
    <path id="Path_22" data-name="Path 22" d="M443.484,170.6h4.37a6.772,6.772,0,1,1,0,13.544h-4.37a6.772,6.772,0,1,1,0-13.544Z" transform="translate(801.062 171.088)"/>
    <path id="Path_23" data-name="Path 23" d="M423.111,184.144h-48a6.772,6.772,0,1,1,0-13.544h48a6.772,6.772,0,1,1,0,13.544Z" transform="translate(902.975 171.088)"/>
    <path id="Path_24" data-name="Path 24" d="M404.489,120.6h48.382a6.772,6.772,0,1,1,0,13.544H404.489a6.772,6.772,0,1,1,0-13.544Z" transform="translate(840.057 164.654)"/>
    <path id="Path_25" data-name="Path 25" d="M379.1,134.144h-3.988a6.772,6.772,0,1,1,0-13.544H379.1a6.772,6.772,0,0,1,0,13.544Z" transform="translate(946.988 164.654)"/>
    <rect id="Rectangle_1" data-name="Rectangle 1" width="16" height="45" transform="translate(1214 187)" fill="#fff"/>
    <rect id="Rectangle_2" data-name="Rectangle 2" width="16" height="45" transform="translate(1448 189)" fill="#fff"/>
    <g id="verified" transform="translate(1043.672 392.2)">
      <path id="Path_28" data-name="Path 28" d="M203.828,32.365,127.315.6a7.807,7.807,0,0,0-5.988,0L44.814,32.365A7.808,7.808,0,0,0,40,39.575V78.193a130.75,130.75,0,0,0,81.371,121.1,7.809,7.809,0,0,0,5.9,0,130.75,130.75,0,0,0,81.371-121.1V39.575A7.807,7.807,0,0,0,203.828,32.365Zm-10.8,45.828a115.161,115.161,0,0,1-68.706,105.391A115.164,115.164,0,0,1,55.615,78.193V44.787l68.706-28.526,68.706,28.526ZM115.691,104.51,149.25,70.952a7.807,7.807,0,1,1,11.041,11.041l-39.079,39.078a7.807,7.807,0,0,1-11.041,0l-21.82-21.82A7.807,7.807,0,0,1,99.392,88.211Z" transform="translate(0 0)"/>
    </g>
    <path id="Path_29" data-name="Path 29" d="M337.087,346.563h33.627c3.417,0,6.186,3.032,6.186,6.772s-2.77,6.772-6.186,6.772H337.086c-3.417,0-6.186-3.032-6.186-6.772s2.77-6.772,6.186-6.772Z" transform="translate(914.067 193.727)"/>
    <path id="Path_30" data-name="Path 30" d="M333.541,300.126c-4.453,0-8.063-3.032-8.063-6.772s3.61-6.772,8.063-6.772H440.318c4.453,0,8.063,3.032,8.063,6.772s-3.61,6.772-8.063,6.772Z" transform="translate(1023.006 -1.328)"/>
    <path id="Path_31" data-name="Path 31" d="M443.484,170.6h4.37a6.772,6.772,0,1,1,0,13.544h-4.37a6.772,6.772,0,1,1,0-13.544Z" transform="translate(920.833 171.088)"/>
    <path id="Path_32" data-name="Path 32" d="M423.111,184.144h-48a6.772,6.772,0,1,1,0-13.544h48a6.772,6.772,0,1,1,0,13.544Z" transform="translate(1022.747 171.088)"/>
    <path id="Path_33" data-name="Path 33" d="M284.379,286.582a6.772,6.772,0,0,1,0,13.544H245.984a6.772,6.772,0,1,1,0-13.544Z" transform="translate(1187.448 186.01)"/>
    <path id="Path_34" data-name="Path 34" d="M333.541,300.126c-4.453,0-8.063-3.032-8.063-6.772s3.61-6.772,8.063-6.772H440.318c4.453,0,8.063,3.032,8.063,6.772s-3.61,6.772-8.063,6.772Z" transform="translate(1007.619 118.312)"/>
    <ellipse id="Ellipse_1" data-name="Ellipse 1" cx="55" cy="29.5" rx="55" ry="29.5" transform="translate(1515 320)" fill="#fff"/>
    <rect id="Rectangle_4" data-name="Rectangle 4" width="23" height="27" transform="translate(1515 315)" fill="#fff"/>
  </g>
</svg>
