<svg xmlns="http://www.w3.org/2000/svg" width="1755" height="393" viewBox="0 0 1755 393">
  <g id="Proof" transform="translate(-115 -373)">
    <rect id="Rectangle_1" data-name="Rectangle 1" width="1755" height="393" transform="translate(115 373)" fill="none"/>
    <g id="Group_1" data-name="Group 1" transform="translate(-501 128.941)">
      <path id="Path_11" data-name="Path 11" d="M27.011,36.684H48.873V28.56A3.926,3.926,0,0,1,52.8,24.634h118.51a3.926,3.926,0,0,1,3.926,3.926v8.124h28.4A17.029,17.029,0,0,1,220.651,53.7V81.98a58.1,58.1,0,0,1,93.532,46.085v17.6a14.037,14.037,0,0,1,9.015,9.99,17.576,17.576,0,0,1-10.76,20.579v3.754a57.1,57.1,0,0,1-29.569,49.987v17.244l30.969,13.217c.072.031.144.065.214.1a32.662,32.662,0,0,1,17.838,26.346c.009.108.014.217.014.327v36.261a3.926,3.926,0,0,1-3.926,3.926H179.608a3.926,3.926,0,0,1-3.926-3.926V287.815H27.011A17.03,17.03,0,0,1,10,270.8V53.694a17.03,17.03,0,0,1,17.011-17.01Zm140.375-4.2H56.723V47.131H167.386Zm138.946,95.578a50.285,50.285,0,0,0-100.57,0v17.872c9.728,1.052,39.424,2.638,63.269-13.173-16.384-2.184-36.357-7.214-51.169-18.574a3.925,3.925,0,1,1,4.777-6.23c26.947,20.668,75.088,18.489,75.569,18.463a3.931,3.931,0,0,1,4.122,3.682l1.178,19.388,2.562-1.315a.5.5,0,0,0,.261-.34Zm-1.745,51.918v-6.724a3.926,3.926,0,0,1,3.246-3.868,9.714,9.714,0,0,0,7.736-11.87,6.117,6.117,0,0,0-3.5-4.246,8.29,8.29,0,0,1-2.421,1.89l-6.412,3.292a5.022,5.022,0,0,1-7.3-4.068c0-.025,0-.049-.005-.074l-1.217-19.945c-3.206.03-8.164-.022-14.191-.442-32.063,27.276-77.438,19.66-79.379,19.319a3.912,3.912,0,0,1-1.159-.412,6.22,6.22,0,0,0-4.8,4.687,9.712,9.712,0,0,0,7.742,11.867,3.926,3.926,0,0,1,3.246,3.868v6.724a49.207,49.207,0,1,0,98.414,0Zm-83.939,45.237v23.73l4.069-1.733v-19.13q-2.1-1.348-4.068-2.868Zm11.918,7.06v14.095a55.875,55.875,0,0,0,42.45,0V233.557a57.046,57.046,0,0,1-42.449-1.278ZM183.534,319.54H324.051V287.367A24.771,24.771,0,0,0,310.638,267.6l-32.689-13.95a63.692,63.692,0,0,1-48.319,0L196.939,267.6a24.768,24.768,0,0,0-13.405,19.767ZM17.851,270.8a9.168,9.168,0,0,0,9.159,9.159H177.067a32.678,32.678,0,0,1,16.466-19.432c.07-.036.141-.065.214-.1L212.8,252.3v-34.38a56.827,56.827,0,0,1-14.477-37.937v-3.754a17.574,17.574,0,0,1-10.76-20.579,14.067,14.067,0,0,1,10.35-10.4V128.064A57.907,57.907,0,0,1,212.8,89.254V53.694a9.168,9.168,0,0,0-9.159-9.159h-28.4v6.521a3.926,3.926,0,0,1-3.926,3.926H52.8a3.926,3.926,0,0,1-3.926-3.926V44.535H27.011a9.168,9.168,0,0,0-9.159,9.159Z" transform="translate(679.314 254.425)" stroke="#000" stroke-width="4"/>
      <rect id="Rectangle_3" data-name="Rectangle 3" width="48.114" height="129.271" transform="translate(663.807 395.031)" fill="#fff"/>
      <path id="Path_12" data-name="Path 12" d="M400.644,221.686h28.7a3.926,3.926,0,0,1,0,7.851h-28.7a3.926,3.926,0,1,1,0-7.851Z" transform="translate(344.37 186.037)" stroke="#000" stroke-width="4"/>
      <path id="Path_15" data-name="Path 15" d="M329.4,294.433a3.926,3.926,0,1,1,0-7.851h51.988a3.926,3.926,0,1,1,0,7.851Z" transform="translate(430.504 160.385)" stroke="#000" stroke-width="4"/>
      <path id="Path_16" data-name="Path 16" d="M303,286.582h3.508a3.926,3.926,0,0,1,0,7.851H303a3.926,3.926,0,0,1,0-7.851Z" transform="translate(522.661 160.385)" stroke="#000" stroke-width="4"/>
      <path id="Path_17" data-name="Path 17" d="M265.395,286.582a3.926,3.926,0,0,1,0,7.851H243.138a3.926,3.926,0,0,1,0-7.851Z" transform="translate(602.943 160.385)" stroke="#000" stroke-width="4"/>
      <path id="Path_19" data-name="Path 19" d="M384.324,346.563h2.822a3.926,3.926,0,1,1,0,7.851h-2.821a3.926,3.926,0,0,1,0-7.851Z" transform="translate(388.816 139.648)" stroke="#000" stroke-width="4"/>
      <path id="Path_20" data-name="Path 20" d="M334.826,346.563h21.338a3.926,3.926,0,0,1,0,7.851H334.826a3.926,3.926,0,0,1,0-7.851Z" transform="translate(454.708 139.648)" stroke="#000" stroke-width="4"/>
      <path id="Path_21" data-name="Path 21" d="M243.138,346.563h42.675a3.926,3.926,0,0,1,0,7.851H243.138a3.926,3.926,0,0,1,0-7.851Z" transform="translate(582.525 139.648)" stroke="#000" stroke-width="4"/>
      <path id="Path_22" data-name="Path 22" d="M440.638,170.6h2.533a3.926,3.926,0,0,1,0,7.851h-2.533a3.926,3.926,0,0,1,0-7.851Z" transform="translate(295.947 200.483)" stroke="#000" stroke-width="4"/>
      <path id="Path_23" data-name="Path 23" d="M400.09,178.451H372.265a3.926,3.926,0,0,1,0-7.851H400.09a3.926,3.926,0,0,1,0,7.851Z" transform="translate(383.763 200.483)" stroke="#000" stroke-width="4"/>
      <path id="Path_24" data-name="Path 24" d="M401.643,120.6h28.047a3.926,3.926,0,1,1,0,7.851H401.643a3.926,3.926,0,0,1,0-7.851Z" transform="translate(334.942 217.769)" stroke="#000" stroke-width="4"/>
      <path id="Path_25" data-name="Path 25" d="M374.578,128.451h-2.312a3.926,3.926,0,0,1,0-7.851h2.312a3.926,3.926,0,0,1,0,7.851Z" transform="translate(409.277 217.769)" stroke="#000" stroke-width="4"/>
      <rect id="Rectangle_1-2" data-name="Rectangle 1" width="9.275" height="26.086" transform="translate(718.878 281.412)" fill="#fff"/>
      <rect id="Rectangle_2" data-name="Rectangle 2" width="9.275" height="26.086" transform="translate(854.526 282.571)" fill="#fff"/>
      <g id="verified" transform="translate(643.328 400.366)">
        <path id="Path_28" data-name="Path 28" d="M134.97,18.763,90.616.349a4.526,4.526,0,0,0-3.471,0L42.791,18.763A4.526,4.526,0,0,0,40,22.943V45.329a75.8,75.8,0,0,0,47.17,70.2,4.527,4.527,0,0,0,3.42,0,75.8,75.8,0,0,0,47.17-70.2V22.943a4.526,4.526,0,0,0-2.79-4.179Zm-6.261,26.566a66.761,66.761,0,0,1-39.836,61.1,66.76,66.76,0,0,1-39.821-61.1V25.964L88.88,9.428l39.828,16.536ZM83.877,60.585l19.454-19.453a4.526,4.526,0,1,1,6.4,6.4L87.078,70.185a4.526,4.526,0,0,1-6.4,0L68.029,57.536a4.526,4.526,0,1,1,6.4-6.4Z" transform="translate(-40 -0.003)" stroke="#000" stroke-width="4"/>
      </g>
      <path id="Path_29" data-name="Path 29" d="M334.487,346.563H353.98a3.942,3.942,0,0,1,0,7.851H334.486a3.942,3.942,0,0,1,0-7.851Z" transform="translate(405.929 139.648)" stroke="#000" stroke-width="4"/>
      <path id="Path_30" data-name="Path 30" d="M330.152,294.433c-2.581,0-4.674-1.758-4.674-3.926s2.093-3.926,4.674-3.926h61.9c2.581,0,4.674,1.758,4.674,3.926s-2.093,3.926-4.674,3.926Z" transform="translate(471.359 51.787)" stroke="#000" stroke-width="4"/>
      <path id="Path_31" data-name="Path 31" d="M440.638,170.6h2.533a3.926,3.926,0,0,1,0,7.851h-2.533a3.926,3.926,0,0,1,0-7.851Z" transform="translate(365.378 200.483)" stroke="#000" stroke-width="4"/>
      <path id="Path_32" data-name="Path 32" d="M400.09,178.451H372.265a3.926,3.926,0,0,1,0-7.851H400.09a3.926,3.926,0,0,1,0,7.851Z" transform="translate(453.194 200.483)" stroke="#000" stroke-width="4"/>
      <path id="Path_33" data-name="Path 33" d="M265.395,286.582a3.926,3.926,0,0,1,0,7.851H243.138a3.926,3.926,0,0,1,0-7.851Z" transform="translate(602.943 160.385)" stroke="#000" stroke-width="4"/>
      <path id="Path_34" data-name="Path 34" d="M330.152,294.433c-2.581,0-4.674-1.758-4.674-3.926s2.093-3.926,4.674-3.926h61.9c2.581,0,4.674,1.758,4.674,3.926s-2.093,3.926-4.674,3.926Z" transform="translate(462.439 121.141)" stroke="#000" stroke-width="4"/>
      <ellipse id="Ellipse_1" data-name="Ellipse 1" cx="31.883" cy="17.101" rx="31.883" ry="17.101" transform="translate(893.365 358.511)" fill="#fff"/>
      <rect id="Rectangle_4" data-name="Rectangle 4" width="13.333" height="15.652" transform="translate(893.365 355.612)" fill="#fff"/>
    </g>
    <text id="Privacy_Enhancing_Technologies_PET_" data-name="Privacy Enhancing
Technologies (PET)" transform="translate(547 537)" font-size="150" font-family="ArialMT, Arial"><tspan x="0" y="0">Privacy Enhancing</tspan><tspan x="0" y="173">Technologies (PET)</tspan></text>
  </g>
</svg>
